<svg xmlns="http://www.w3.org/2000/svg" contentScriptType="text/ecmascript" width="30" zoomAndPan="magnify" contentStyleType="text/css" height="30" preserveAspectRatio="xMidYMid meet" xmlns:v="https://vecta.io/nano"><style><![CDATA[.B{fill:rgb(85.879517%, 90.19928%, 99.21875%)}.C{clip-rule:nonzero}]]></style><defs><clipPath id="A"><path d="M22 0h6.266v6H22zm0 0" class="C"/></clipPath><clipPath id="B"><path d="M1.41 0H8v6H1.41zm0 0" class="C"/></clipPath><clipPath id="C"><path d="M1.41 1h26.855v28H1.41zm0 0" class="C"/></clipPath></defs><path d="M14.914 16.82c-.48.145-.973-.137-1.113-.613a.91.91 0 0 1 .605-1.129c.473-.141.973.133 1.113.613s-.137.988-.605 1.129zm7.484-5.059c-.23-.453-.785-.625-1.234-.387l-6.035 2.996a1.52 1.52 0 0 0-.906-.02l-4.121-1.57a.89.89 0 0 0-.609-.031c-.246.07-.461.246-.57.5a.91.91 0 0 0 .461 1.188l3.762 1.879c.246.844 1.117 1.32 1.945 1.074.504-.148.871-.535 1.031-.996l5.898-3.387a.93.93 0 0 0 .449-1.074c-.016-.062-.043-.117-.07-.172" class="B"/><g clip-path="url(#A)" class="B"><path d="M28.238 3.75a3.71 3.71 0 0 1-.641 2.074A20.02 20.02 0 0 0 22.082.965c.66-.582 1.523-.934 2.469-.93 2.043.008 3.695 1.672 3.688 3.715"/></g><g clip-path="url(#B)" class="B"><path d="M1.625 3.75a3.71 3.71 0 0 0 .641 2.074A20.02 20.02 0 0 1 7.781.965C7.121.383 6.258.031 5.313.035 3.27.043 1.617 1.707 1.625 3.75"/></g><g clip-path="url(#C)" class="B"><path d="M20.836 24.777c-1.406.883-3.016 1.465-4.738 1.656v-.512a1.09 1.09 0 0 0-1.086-1.098 1.09 1.09 0 0 0-1.082 1.098v.547a11.25 11.25 0 0 1-4.922-1.59c-1-.598-1.898-1.352-2.668-2.223-1.59-1.789-2.637-4.086-2.867-6.609h.484a1.09 1.09 0 1 0 0-2.191h-.484c.516-5.562 4.941-9.98 10.457-10.422v.555a1.09 1.09 0 0 0 1.082 1.098 1.09 1.09 0 0 0 1.086-1.098v-.52c5.352.598 9.602 4.949 10.105 10.387h-.566c-.598 0-1.082.488-1.082 1.098a1.09 1.09 0 0 0 1.082 1.094h.566a11.55 11.55 0 0 1-2.738 6.465c-.758.883-1.641 1.648-2.629 2.266zm3.727-.465c2.293-2.434 3.707-5.73 3.707-9.363 0-7.508-6.016-13.586-13.434-13.586S1.406 7.441 1.406 14.949a13.62 13.62 0 0 0 3.844 9.516l-1.141 1.898a1.74 1.74 0 0 0 .563 2.379c.277.172.586.254.891.254a1.7 1.7 0 0 0 1.461-.828l.934-1.551a13.23 13.23 0 0 0 6.879 1.922 13.28 13.28 0 0 0 7.051-2.02l.996 1.648c.324.535.887.828 1.461.828.305 0 .613-.082.891-.254.805-.5 1.059-1.562.566-2.379l-1.238-2.051"/></g></svg>