<svg xmlns="http://www.w3.org/2000/svg" contentScriptType="text/ecmascript" width="30" zoomAndPan="magnify" contentStyleType="text/css" height="30" preserveAspectRatio="xMidYMid meet" xmlns:v="https://vecta.io/nano"><style><![CDATA[.B{clip-rule:nonzero}.C{fill:rgb(85.879517%, 90.19928%, 99.21875%)}]]></style><defs><clipPath id="A"><path d="M1 5h28.516v12H1zm0 0" class="B"/></clipPath><clipPath id="B"><path d="M.727 2.723h28.789v20.066H.727zm0 0" class="B"/></clipPath><clipPath id="C"><path d="M23.457 17.055h6.059v8.895h-6.059zm0 0" class="B"/></clipPath></defs><g clip-path="url(#A)" class="C"><path d="M15.223 16.734L1.285 7.504l1.418-2.07 12.52 8.289 12.523-8.289 1.414 2.07-13.937 9.23"/></g><g clip-path="url(#B)" class="C"><path d="M27.27 20.242H3.262V5.219h23.926v10.918h2.535V2.723H.727v20.016H27.27v-2.496"/></g><g clip-path="url(#C)" class="C"><path d="M24.949 25.949l-1.453-1.512 3.129-2.914-3.129-2.918 1.453-1.512 4.75 4.43-4.75 4.426"/></g></svg>