<svg xmlns="http://www.w3.org/2000/svg" contentScriptType="text/ecmascript" width="30" zoomAndPan="magnify" contentStyleType="text/css" height="30" preserveAspectRatio="xMidYMid meet" xmlns:v="https://vecta.io/nano"><style><![CDATA[.B{fill:rgb(85.879517%, 90.19928%, 99.21875%)}.C{clip-rule:nonzero}]]></style><defs><clipPath id="A"><path d="M6 0h17v29.031H6zm0 0" class="C"/></clipPath><clipPath id="B"><path d="M21.121 6.652h6.652V16h-6.652zm0 0" class="C"/></clipPath></defs><path d="M17.383 13.137l.23-3.211a.66.66 0 0 0-.309-.605 2.93 2.93 0 0 0-.742-.309c-1.344-.328-2.703.48-3.055 1.813-.551 2.176-.207 4.48.961 6.395a8.47 8.47 0 0 0 5.32 3.879 2.63 2.63 0 0 0 .605.07 2.53 2.53 0 0 0 2.457-1.906 2.95 2.95 0 0 0 .066-.414 2.13 2.13 0 0 0 0-.387.67.67 0 0 0-.402-.559l-2.992-1.277h-.098c-.246-.062-.512.023-.676.219l-.309.371c-.531-.41-.984-.918-1.336-1.488a5.45 5.45 0 0 1-.723-1.852l.473-.102c.305-.066.52-.328.527-.637m3.893-3.934l-.242.988a4.15 4.15 0 0 1 2.582 1.906 4.11 4.11 0 0 1 .477 3.117l.984.238a5.13 5.13 0 0 0-3.758-6.211l-.043-.012v-.027" class="B"/><g clip-path="url(#A)" class="B"><path d="M15.93 26.082c-.129.535-.551.953-1.086 1.086-.816.188-1.629-.316-1.816-1.129-.051-.227-.051-.457 0-.684.133-.539.551-.957 1.09-1.09a1.51 1.51 0 0 1 1.813 1.129 1.46 1.46 0 0 1 0 .688zM12.957 2.418h3.023c.168 0 .301.137.301.305s-.133.301-.301.301h-3.023c-.168 0-.305-.133-.305-.301s.137-.305.305-.305zm8.77 20.262c0 .168-.137.305-.305.305H7.512c-.168 0-.301-.137-.301-.305V5.141c0-.168.133-.301.301-.301h13.91c.168 0 .305.133.305.301v.254l.332.078.875.254V3.629A3.63 3.63 0 0 0 19.305 0H9.629A3.63 3.63 0 0 0 6 3.629v21.773a3.63 3.63 0 0 0 3.629 3.629h9.676a3.63 3.63 0 0 0 3.629-3.629v-4.023a3.75 3.75 0 0 1-1.207.758v.543"/></g><g clip-path="url(#B)" class="B"><path d="M26.672 10.191a7.78 7.78 0 0 0-4.891-3.539l-.238.992c1.77.418 3.293 1.527 4.234 3.078a6.51 6.51 0 0 1 .789 4.969l.984.246a7.49 7.49 0 0 0-.879-5.746"/></g></svg>