<?xml version="1.0" encoding="UTF-8"?>
<svg contentScriptType="text/ecmascript" contentStyleType="text/css" version="1.0" viewBox="0 0 234 136.5" xmlns="http://www.w3.org/2000/svg" xmlns:xlink="http://www.w3.org/1999/xlink" zoomAndPan="magnify">
<defs>
<g id="b">
<path d="m2.2031-30.266h9.3906c2.832 0 5.0938 0.60547 6.7812 1.8125 1.6875 1.2109 2.5312 3.1719 2.5312 5.8906 0 3.0312-1.2578 5.1992-3.7656 6.5 4.3008 0.75 6.4531 3.293 6.4531 7.625 0 2.543-0.88281 4.5859-2.6406 6.125-1.7617 1.543-4.1836 2.3125-7.2656 2.3125h-11.484zm6.8906 11.844h0.5625c1.5312 0 2.6758-0.26562 3.4375-0.79688 0.75781-0.53906 1.1406-1.4219 1.1406-2.6406 0-2.0625-1.5273-3.0938-4.5781-3.0938h-0.5625zm0 13.109h2.1719c3.375 0 5.0625-1.125 5.0625-3.375 0-1.3516-0.42188-2.3203-1.2656-2.9062-0.84375-0.58203-2.1094-0.875-3.7969-0.875h-2.1719z"/>
</g>
<g id="f">
<path d="m16.469-18.828h7.4844l-14.781 28.359h-7.4844l6.5-12.469-8.9219-15.891h7.4844l5.25 9.6562z"/>
</g>
<g id="a">
<path d="m1.3594 4.625 5.3125-2.6094c0.97656 1.6133 2.6797 2.4219 5.1094 2.4219 1.125 0 2.1641-0.35938 3.125-1.0781 0.96875-0.71875 1.4531-1.8281 1.4531-3.3281v-1.3906c-1.1484 1.2734-3.1992 1.9062-6.1562 1.9062-2.7188 0-4.9609-0.95703-6.7188-2.875-1.7617-1.9141-2.6406-4.2695-2.6406-7.0625 0-2.7891 0.87891-5.1484 2.6406-7.0781 1.7578-1.9375 4-2.9062 6.7188-2.9062 2.4141 0 4.4297 0.74609 6.0469 2.2344h0.10938v-1.6875h6.5v19.344c0 3.0508-1.0156 5.4102-3.0469 7.0781-2.0312 1.6641-4.7109 2.5-8.0312 2.5-5.3867 0-8.8594-1.8242-10.422-5.4688zm7.6406-17.203c-0.84375 0.82422-1.2656 1.8867-1.2656 3.1875 0 1.293 0.39844 2.3516 1.2031 3.1719 0.8125 0.82422 1.8789 1.2344 3.2031 1.2344 1.2695 0 2.3164-0.41406 3.1406-1.25 0.82031-0.83203 1.2344-1.8828 1.2344-3.1562 0-1.3008-0.42188-2.3633-1.2656-3.1875-0.84375-0.83203-1.8828-1.25-3.1094-1.25-1.25 0-2.2969 0.41797-3.1406 1.25z"/>
</g>
<g id="e">
<path d="m2.8281-29.312c0.75781-0.75781 1.6641-1.1406 2.7188-1.1406 1.0508 0 1.9531 0.38281 2.7031 1.1406 0.75781 0.76172 1.1406 1.668 1.1406 2.7188 0 1.0547-0.38281 1.9609-1.1406 2.7188-0.75 0.75-1.6523 1.125-2.7031 1.125-1.0547 0-1.9609-0.375-2.7188-1.125-0.76172-0.75781-1.1406-1.6641-1.1406-2.7188 0-1.0508 0.37891-1.957 1.1406-2.7188zm-0.625 10.484v18.828h6.4844v-18.828z"/>
</g>
<g id="d">
<path d="m21.234-8.5156h-13.641c0 1.3242 0.42578 2.3047 1.2812 2.9375 0.85156 0.63672 1.7852 0.95312 2.7969 0.95312 1.0508 0 1.8789-0.14062 2.4844-0.42188 0.61328-0.28125 1.3125-0.83594 2.0938-1.6719l4.7031 2.3594c-1.9609 3.2734-5.2148 4.9062-9.7656 4.9062-2.8359 0-5.2656-0.96875-7.2969-2.9062-2.0312-1.9453-3.0469-4.2891-3.0469-7.0312 0-2.7383 1.0156-5.0859 3.0469-7.0469 2.0312-1.957 4.4609-2.9375 7.2969-2.9375 2.9883 0 5.4141 0.86719 7.2812 2.5938 1.875 1.7188 2.8125 4.1836 2.8125 7.3906 0 0.4375-0.015625 0.73047-0.046875 0.875zm-13.453-3.5938h7.1562c-0.14844-0.97656-0.53125-1.7266-1.1562-2.25-0.625-0.53125-1.4297-0.79688-2.4062-0.79688-1.0742 0-1.9336 0.28125-2.5781 0.84375-0.63672 0.5625-0.97656 1.2969-1.0156 2.2031z"/>
</g>
<g id="c">
<path d="m2.2031 0v-18.828h6.4844v2.7188h0.078125c0.050781-0.09375 0.12891-0.21094 0.23438-0.35938 0.11328-0.14453 0.35156-0.39844 0.71875-0.76562 0.36328-0.375 0.75391-0.70703 1.1719-1 0.41406-0.28906 0.95312-0.55078 1.6094-0.78125 0.66406-0.23828 1.3438-0.35938 2.0312-0.35938 0.70703 0 1.3984 0.10156 2.0781 0.29688 0.6875 0.19922 1.1914 0.39844 1.5156 0.59375l0.51562 0.28125-2.7188 5.5156c-0.80469-0.6875-1.9297-1.0312-3.375-1.0312-0.78125 0-1.4531 0.17188-2.0156 0.51562s-0.96484 0.76172-1.2031 1.25c-0.23047 0.49219-0.39844 0.90625-0.5 1.25-0.09375 0.33594-0.14062 0.60156-0.14062 0.79688v9.9062z"/>
</g>
<clipPath id="ac">
<path d="m116 22.547h12.93v56.047h-12.93z"/>
</clipPath>
<clipPath id="ab">
<path d="m87.832 67h10.168v5h-10.168z"/>
</clipPath>
<clipPath id="q">
<path d="m87.832 71h10.168v4h-10.168z"/>
</clipPath>
<clipPath id="m">
<path d="m161 33h13.375v19h-13.375z"/>
</clipPath>
<clipPath id="l">
<path d="m163 29.422h11v6.5781h-11z"/>
</clipPath>
<clipPath id="k">
<path d="m143 51h20v34.465h-20z"/>
</clipPath>
<clipPath id="j">
<path d="m134.77 76h6.2305v9.4648h-6.2305z"/>
</clipPath>
<clipPath id="i">
<path d="m40.074 51h32.926v22h-32.926z"/>
</clipPath>
<clipPath id="h">
<path d="m56 43.543h10v7.457h-10z"/>
</clipPath>
<clipPath id="g">
<path d="m58 81h8v2.8945h-8z"/>
</clipPath>
<clipPath id="aa">
<path d="m66 81h8v2.8945h-8z"/>
</clipPath>
<clipPath id="z">
<path d="m74 81h7.1719v2.8945h-7.1719z"/>
</clipPath>
<clipPath id="y">
<path d="m50 81h7v2.8945h-7z"/>
</clipPath>
<clipPath id="x">
<path d="m42 81h8v2.8945h-8z"/>
</clipPath>
<clipPath id="w">
<path d="m74 74h7.1719v3h-7.1719z"/>
</clipPath>
<clipPath id="v">
<path d="m74 67h7.1719v3h-7.1719z"/>
</clipPath>
<clipPath id="u">
<path d="m77 77h4.1719v4h-4.1719z"/>
</clipPath>
<clipPath id="t">
<path d="m77 70h4.1719v4h-4.1719z"/>
</clipPath>
<clipPath id="s">
<path d="m0.42578 79h22.574v31h-22.574z"/>
</clipPath>
<clipPath id="r">
<path d="m0.42578 0h129.57v74h-129.57z"/>
</clipPath>
<clipPath id="p">
<path d="m105 0h128.57v73h-128.57z"/>
</clipPath>
<clipPath id="o">
<path d="m11 120h211v16h-211z"/>
</clipPath>
<clipPath id="n">
<path d="m12 110h25v26h-25z"/>
</clipPath>
</defs>
<g clip-path="url(#ac)">
<path d="m125.96 76.961v0.035156l2.3828 1.543 0.58984-0.89453-1.8906-1.2266v-51.699l1.8906-1.2266-0.58984-0.89844-11.641 7.5352 0.59375 0.89453 8.6641-5.6055z" fill="#e3effb"/>
</g>
<path d="m118.96 54.637h3.668v-3.1367l1.207-0.78125v7.5703l-1.207-0.78125v-1.8203h-3.668c-0.16406 0.21484-0.42188 0.34766-0.69922 0.34766h-0.17969c0.003906 0.50391-0.22656 0.99609-0.65625 1.3203v5.5273c0.023437 0.09375 0.039063 0.1875 0.050781 0.28516l1.0469 8.793c0.027344 0.22266 0.019531 0.44141-0.007812 0.65625l6.7109 4.3438v-50.41l-7.8008 5.0469v22.695h0.83594c0.27734 0 0.53516 0.12891 0.69922 0.34375z" fill="#e3effb"/>
<path d="m108.19 67.637c-0.16797 0.042969-0.34766 0.066406-0.53125 0.070312-0.29688 0.050781-0.63672 0.0625-0.96094 0.066407-0.042968 0-0.089843 0.003906-0.13672 0.003906-0.58594 0-1.2578-0.054688-1.8906-0.30078l0.097656 0.24219 0.99219 2.4961h-4.8789c-1.1133 0-2.0156 0.89453-2.0156 1.9922 0 1.1016 0.90234 1.9961 2.0156 1.9961h7.8359c0.66797 0 1.2891-0.32812 1.6641-0.875 0.375-0.54297 0.45312-1.2383 0.21094-1.8516l-1.5391-3.8672-0.074219-0.17578z" fill="#e3effb"/>
<path d="m113.96 72.496c0.12109 1.0117 0.99219 1.7578 2 1.7578 0.078124 0 0.15625-0.003906 0.23828-0.011718 1.1016-0.12891 1.8906-1.1211 1.7617-2.2148l-1.0469-8.7969c-0.066406-0.57031-0.38281-1.0859-0.86328-1.4102-0.48047-0.32422-1.0781-0.42969-1.6406-0.28516l-5.8047 1.4961c0.035156-1.2227 0.21875-2.4688 0.42969-3.625l-2.7578-2.1367c-0.34766-0.26953-0.57031-0.66016-0.625-1.0938-0.054688-0.43359 0.066406-0.86719 0.33984-1.2109 0.31641-0.40234 0.79297-0.63281 1.3086-0.63281 0.37109 0 0.72656 0.12109 1.0195 0.35156l1.3789 1.0664c0-1.2695-0.60156-2.4766-1.6719-2.7422-1.375-0.33984-3.3672 0.40234-4.1758 2.7344-1.0977 3.2188-1.332 5.3125-0.91797 8.8555 0.50391 2.5664 2.2812 2.8281 3.7578 2.8086 0.35547-0.003906 0.66406-0.015625 0.92578-0.0625 0.15625-0.003906 0.31641-0.023438 0.47656-0.0625l5.0938-1.3125z" fill="#e3effb"/>
<path d="m116.26 48.309c0.0625-0.62891-1.4297-1.293-3.332-1.4805-0.0625-0.007813-0.12891-0.011719-0.19141-0.015625-0.58594-0.70312-1.4414-1.1875-2.4297-1.2852-1.9922-0.19922-3.7695 1.2422-3.9688 3.2109-0.19922 1.9727 1.2539 3.7305 3.2461 3.9297 1.8242 0.17969 3.4688-1.0156 3.8828-2.7344-0.32422-0.050782-0.66406-0.11719-1.0078-0.20703-1.8203-0.46875-3.168-1.3242-3.0664-1.9336 0.1875 0.57422 1.5742 1.1367 3.3047 1.3086 1.3086 0.12891 2.4688 0.003907 3.0898-0.29297 0.28125-0.13672 0.45313-0.30469 0.47266-0.5z" fill="#e3effb"/>
<path d="m117.81 55.148c0.10938 0.16406 0.18359 0.33984 0.22656 0.51953h0.22266c0.22266 0 0.41406-0.14844 0.48047-0.34766h4.3008v-0.31641h-4.3008c-0.066406-0.19922-0.25781-0.34766-0.48047-0.34766h-0.95703c0.19922 0.125 0.375 0.28906 0.50781 0.49219z" fill="#e3effb"/>
<path d="m115.54 54.656h-1.1758c-0.28125 0-0.51172 0.23047-0.51172 0.50781 0 0.17969 0.10156 0.33594 0.24609 0.42578l1.4102-0.91406c0.011719-0.007812 0.019531-0.011719 0.03125-0.019531z" fill="#e3effb"/>
<path d="m108.09 54.973c-0.5625-0.43359-1.3711-0.33594-1.8086 0.21875-0.4375 0.55469-0.33984 1.3555 0.22266 1.7891l4.2109 3.2617c0.23047 0.17969 0.51172 0.26953 0.79297 0.26953 0.24609 0 0.48828-0.070313 0.70703-0.20703l4.9102-3.1914c0.59375-0.38672 0.76172-1.1758 0.37109-1.7656s-1.1875-0.75391-1.7852-0.36719l-4.1367 2.6875z" fill="#e3effb"/>
<g clip-path="url(#ab)">
<path d="m97.926 71.059v-1.8516h-2.6719v-1.2227h0.46094v-0.47656h-5.6758v0.47656h0.46484v1.2227h-2.6719v1.8516zm-6.9414-2.8359h3.7852v0.98438h-3.7852z" fill="#e3effb"/>
</g>
<g clip-path="url(#q)">
<path d="m87.832 71.41h10.094v2.793h-10.094z" fill="#e3effb"/>
</g>
<g clip-path="url(#m)">
<path d="m173.34 36.75 0.91406-2.5156c0.074219-0.19922-0.03125-0.42188-0.23047-0.49609-0.20312-0.070312-0.42578 0.03125-0.5 0.23438l-0.83203 2.293-5.4609 0.66016c-0.14062 0.015625-0.26172 0.11328-0.3125 0.24609l-0.87891 2.2969c-0.19922 0.042969-0.375 0.17969-0.45312 0.38281l-4.4258 11.582c0.015625 0 0.03125-0.003906 0.042969-0.003906 0.26172 0 0.52344 0.066406 0.75391 0.1875 0.13281 0.070312 0.25391 0.16016 0.35938 0.26172l4.4297-11.586c0.0625-0.16016 0.050781-0.32812-0.011719-0.47266l0.82422-2.1562 5.4609-0.66016c0.14844-0.015625 0.26953-0.11328 0.32031-0.25391z" fill="#e3effb"/>
</g>
<g clip-path="url(#l)">
<path d="m163.39 32.047 0.91016-2.625 9.2031 3.1758-0.91016 2.625z" fill="#e3effb"/>
</g>
<path d="m157.48 61.582c-0.066406 0-0.13281-0.003906-0.19922-0.011719l-1.457 3.8164-2.3867-1.1094-0.64453 2.4336 2.1445 0.99219-0.82422 2.1523c-0.12109 0.32031 0.039063 0.67578 0.35938 0.80078 0.074219 0.027344 0.14844 0.039062 0.22266 0.039062 0.25 0 0.48438-0.15234 0.57812-0.39844l0.875-2.2812c0.38281-0.070313 0.73047-0.31641 0.90625-0.69531 0.20312-0.4375 0.12891-0.92969-0.15234-1.2852l2.125-5.5508-0.13672 0.25391c-0.27734 0.51953-0.82031 0.84375-1.4102 0.84375z" fill="#e3effb"/>
<g clip-path="url(#k)">
<path d="m145.29 60.863-1.7148 6.4609c-0.21094 0.47656-0.23047 1.0391-0.003907 1.5547l2.9531 6.7656-3.2812 7.0781c-0.44922 0.97266-0.027344 2.1211 0.94531 2.5703 0.26562 0.12109 0.53906 0.17969 0.8125 0.17969 0.73438 0 1.4336-0.41797 1.7617-1.125l3.6484-7.8672c0.23047-0.5 0.23828-1.0781 0.015625-1.5859l-1.3125-3.0117 3.8242 4.2188 0.21094 7.3359c0.03125 1.0469 0.89453 1.8789 1.9375 1.8789h0.058593c1.0703-0.03125 1.9141-0.92188 1.8828-1.9922l-0.23438-8.0469c-0.011719-0.46094-0.1875-0.90234-0.5-1.2422l-4.5-4.9609 2.207-8.3242 3.3008 0.46484c0.058594 0.007812 0.11719 0.011718 0.17578 0.011718 0.45313 0 0.875-0.24609 1.0938-0.65625l3.7266-6.9648c0.32031-0.60156 0.09375-1.3516-0.51172-1.6719-0.60547-0.32422-1.3594-0.09375-1.6797 0.50781l-3.3164 6.1992-3.9336-0.55469c-0.023438-0.003907-0.042969-0.003907-0.066407-0.007813l-3.2031-0.71875-2.6953-0.60938c-0.011719 0.003906-0.023437 0.007812-0.03125 0.011719-0.3125-0.0625-0.64844-0.003907-0.93359 0.18359l-2.3047 1.5352c-0.003906 0-0.003906 0.003906-0.007813 0.003906l-0.015625 0.011719c-0.007812 0.003906-0.015625 0.011718-0.023437 0.015625-0.023438 0.015625-0.046875 0.035156-0.070313 0.050781-0.015625 0.011719-0.027344 0.027344-0.042968 0.039062-0.015626 0.011719-0.03125 0.027344-0.046876 0.042969-0.019531 0.019531-0.035156 0.039063-0.054687 0.058594l-0.023437 0.023437s-0.003907 0.003907-0.003907 0.007813c-0.019531 0.023437-0.035156 0.046875-0.054687 0.070313-0.007813 0.007812-0.015625 0.019531-0.019532 0.027343-0.015624 0.023438-0.027343 0.046875-0.042968 0.066407-0.007813 0.015624-0.015625 0.027343-0.023438 0.042968-0.007812 0.015625-0.015625 0.035156-0.027344 0.050782-0.007812 0.019531-0.015624 0.039062-0.027343 0.058593-0.003907 0.011719-0.007813 0.023438-0.011719 0.035157-0.007812 0.027343-0.019531 0.054687-0.027344 0.078124-0.003906 0.007813-0.003906 0.015626-0.003906 0.023438-0.011719 0.03125-0.019531 0.0625-0.023438 0.09375-0.003906 0.007812-0.003906 0.019531-0.007812 0.027344-0.003906 0.03125-0.007812 0.058594-0.011719 0.089844 0 0.015624 0 0.035156-0.003906 0.054687 0 0.019531-0.003906 0.039063-0.003906 0.0625 0 0.027344 0.003906 0.054687 0.003906 0.082031 0 0.011719 0 0.023438 0.003906 0.035156 0 0.027344 0.003907 0.058594 0.011719 0.089844 0 0.007813 0 0.019532 0.003906 0.027344 0.003906 0.027344 0.011719 0.050781 0.015625 0.078125 0.003907 0.011719 0.007813 0.027344 0.011719 0.039063 0.003906 0.019531 0.011719 0.039062 0.019531 0.058593 0.007813 0.019531 0.011719 0.039063 0.019531 0.058594 0.003907 0.011719 0.011719 0.027344 0.019532 0.039063 0.007812 0.027343 0.019531 0.050781 0.03125 0.074218 0.007812 0.007813 0.011718 0.019532 0.019531 0.03125 0.015625 0.023438 0.027344 0.050782 0.046875 0.078125 0 0 0 0.003907 0.003906 0.003907 0.003906 0.007812 0.007813 0.011718 0.011719 0.015624 0.019531 0.03125 0.042969 0.0625 0.070313 0.09375 0.011718 0.011719 0.019531 0.023438 0.03125 0.035157 0.019531 0.023437 0.042968 0.046875 0.066406 0.066406 0.011718 0.011719 0.027344 0.027344 0.039062 0.039063 0.003906 0.003906 0.007813 0.007812 0.011719 0.011718l1.2578 1.0547 0.21094-0.79297z" fill="#e3effb"/>
</g>
<path d="m152.83 52.117c0.33594-0.089844 0.6875-0.21094 1.0469-0.35547 1.707-0.69531 2.8984-1.7188 2.668-2.2852-0.23438-0.57031-1.8047-0.46484-3.5117 0.23047-0.054687 0.023438-0.11328 0.046875-0.16797 0.074219-0.82031-0.33984-1.7695-0.36719-2.6562-0.007812-1.7852 0.72656-2.6406 2.7617-1.9102 4.543 0.72656 1.7812 2.7656 2.6328 4.5508 1.9062 1.7148-0.69922 2.5742-2.6016 1.9883-4.332-0.78906 0.21094-1.5039 0.28906-2.0078 0.22656z" fill="#e3effb"/>
<g clip-path="url(#j)">
<path d="m140.7 84.77v-7.4297c0-0.33203-1.3125-0.60547-2.9336-0.60547-1.6211 0-2.9375 0.27344-2.9375 0.60547v3.9414c1.4023-0.0625 2.5703-1.125 2.7852-2.4883-0.089844-0.0625-0.14453-0.16406-0.14453-0.27734 0-0.19531 0.15625-0.34766 0.34766-0.34766 0.19531 0 0.35156 0.15234 0.35156 0.34766 0 0.15625-0.10547 0.28516-0.25 0.33203-0.23047 1.5273-1.5078 2.6836-3.0898 2.7422v3.1797c0 0.33594 1.3164 0.60547 2.9375 0.60547 1.6211 0 2.9336-0.26953 2.9336-0.60547zm-0.55859-7.2891c0 0.078125-0.15625 0.14844-0.42188 0.20703v3.5234c0 0.097656-0.082032 0.17578-0.17969 0.17578s-0.17578-0.078125-0.17578-0.17578v-3.4609c-0.058594 0.007812-0.11719 0.015625-0.17969 0.023438v0.84766c0 0.097656-0.082032 0.17578-0.17969 0.17578s-0.17969-0.078125-0.17969-0.17578v-0.8125c-0.31641 0.023437-0.67578 0.039062-1.0586 0.039062-1.3125 0-2.3789-0.16406-2.3789-0.36719s1.0664-0.36719 2.3789-0.36719 2.375 0.16406 2.375 0.36719z" fill="#e3effb"/>
</g>
<path d="m163.28 32.852c-0.085938 0-0.15625 0.070313-0.15625 0.15625v1.1328c0 0.085937 0.070312 0.15625 0.15625 0.15625s0.15625-0.070313 0.15625-0.15625v-1.1328c0-0.085937-0.070312-0.15625-0.15625-0.15625z" fill="#e3effb"/>
<path d="m165.32 33.805v2c0 0.085937 0.070312 0.15625 0.15625 0.15625 0.085937 0 0.15625-0.070313 0.15625-0.15625v-2c0-0.085938-0.070313-0.15234-0.15625-0.15234-0.085938 0-0.15625 0.066406-0.15625 0.15234z" fill="#e3effb"/>
<path d="m164.23 33.418v4.2305c0 0.085937 0.070313 0.15625 0.15625 0.15625 0.082032 0 0.15234-0.070313 0.15234-0.15625v-4.2305c0-0.085938-0.070312-0.15234-0.15234-0.15234-0.085937 0-0.15625 0.066406-0.15625 0.15234z" fill="#e3effb"/>
<g clip-path="url(#i)">
<path d="m47.012 58.973-0.49219-0.51953-0.94531-0.019531-0.72266-0.82812 0.87891-1.168s-3.9492-4.1406-4.8008-3.5352c-0.85156 0.60938 1.7109 5.7344 1.7109 5.7344s0.96484-0.30859 1.5156-0.48828l0.054688-0.035157 0.98828 1.1328 0.96484 0.019531 0.12109 0.12891c-0.23828 0.26953-0.36328 0.63672-0.32031 1.0234 0.082031 0.66797 0.64453 1.1562 1.293 1.1562 0.054688 0 0.10547-0.003907 0.16016-0.007813l0.83203-0.10156 0.76562 0.80469 0.58984-0.56641-0.34375-0.36328 4.082-0.49609c0.60156-0.070312 1.0703-0.55078 1.1406-1.1523 0.20703-1.8359 0.57422-3.0547 0.95703-3.8438v16.617h4.0312v-6.8086h0.75391v3.7461h4.0312v-13.551c0.33203 0.68359 0.64844 1.6875 0.86328 3.1367 0.078125 0.50391 0.43359 0.91797 0.91797 1.0664 0.125 0.035156 0.25 0.054687 0.375 0.054687 0.36328 0 0.71875-0.15625 0.97266-0.4375l5.1055-5.7539-2.4453-1.1875-2.9219 3.293c-1.1953-3.7227-3.2852-4.1172-4.0625-4.1328h-0.0625-6.3008c-0.023438 0-0.050781 0-0.078125 0.003906-0.40625 0.007813-1.168 0.12891-1.9805 0.77344-1.2891 1.0273-2.168 2.9375-2.6055 5.6914l-4.9297 0.59766c-0.03125 0.003907-0.0625 0.011719-0.09375 0.015625z" fill="#e3effb"/>
</g>
<g clip-path="url(#h)">
<path d="m59.848 50.953c1.9688 0 3.5742-1.5586 3.6641-3.5156-0.33203 0.011719-0.69141 0.007812-1.0586-0.015625-1.8945-0.125-3.4023-0.73438-3.418-1.3711 0.29688 0.54688 1.7852 0.85156 3.5391 0.69141 1.3242-0.11719 2.4531-0.46875 3.0156-0.88672 0.25391-0.19141 0.39062-0.39453 0.37109-0.59766-0.054688-0.64844-1.6641-1.0312-3.5938-0.85937-0.058594 0.003906-0.11719 0.011718-0.17578 0.019531-0.63281-0.53125-1.4492-0.85156-2.3438-0.85156-2.0234 0-3.668 1.6523-3.668 3.6953 0 2.0391 1.6445 3.6914 3.668 3.6914z" fill="#e3effb"/>
</g>
<g clip-path="url(#g)">
<path d="m58.125 81.25h6.9297v2.625h-6.9297z" fill="#e3effb"/>
</g>
<g clip-path="url(#aa)">
<path d="m66.188 81.25h6.9258v2.625h-6.9258z" fill="#e3effb"/>
</g>
<g clip-path="url(#z)">
<path d="m74.246 83.875h6.9297v-2.625h-6.9297z" fill="#e3effb"/>
</g>
<g clip-path="url(#y)">
<path d="m50.066 81.25h6.9297v2.625h-6.9297z" fill="#e3effb"/>
</g>
<g clip-path="url(#x)">
<path d="m49.047 81.25h-6.9258v2.625h6.9258z" fill="#e3effb"/>
</g>
<path d="m50.066 74.258h6.9297v2.625h-6.9297z" fill="#e3effb"/>
<path d="m58.125 74.258h6.9297v2.625h-6.9297z" fill="#e3effb"/>
<path d="m66.188 74.258h6.9258v2.625h-6.9258z" fill="#e3effb"/>
<g clip-path="url(#w)">
<path d="m74.246 76.883h6.9297v-2.625h-6.9297z" fill="#e3effb"/>
</g>
<path d="m66.188 67.266h6.9258v2.6289h-6.9258z" fill="#e3effb"/>
<g clip-path="url(#v)">
<path d="m74.246 69.895h6.9297v-2.6289h-6.9297z" fill="#e3effb"/>
</g>
<path d="m61.59 77.754h6.9297v2.625h-6.9297z" fill="#e3effb"/>
<path d="m69.652 77.754h6.9258v2.625h-6.9258z" fill="#e3effb"/>
<g clip-path="url(#u)">
<path d="m77.711 80.379h3.4648v-2.625h-3.4648z" fill="#e3effb"/>
</g>
<path d="m48.965 77.754h3.4609v2.625h-3.4609z" fill="#e3effb"/>
<path d="m53.531 77.754h6.9297v2.625h-6.9297z" fill="#e3effb"/>
<path d="m61.59 70.762h6.9297v2.625h-6.9297z" fill="#e3effb"/>
<path d="m69.652 70.762h6.9258v2.625h-6.9258z" fill="#e3effb"/>
<g clip-path="url(#t)">
<path d="m77.711 73.387h3.4648v-2.625h-3.4648z" fill="#e3effb"/>
</g>
<path d="m68.492 51.555 1.1328-2.3672 6.2383 3.0312-1.1328 2.3672z" fill="#e3effb"/>
<g clip-path="url(#s)">
<g fill="#e3effb">
<use x="-1.368439" y="109.960167" xlink:href="#b" xlink:actuate="onLoad" xlink:show="embed" xlink:type="simple" xmlns:xlink="http://www.w3.org/1999/xlink"/>
</g>
</g>
<g fill="#e3effb">
<use x="23.063431" y="109.960167" xlink:href="#f" xlink:actuate="onLoad" xlink:show="embed" xlink:type="simple" xmlns:xlink="http://www.w3.org/1999/xlink"/>
</g>
<g fill="#e3effb">
<use x="46.284707" y="109.960167" xlink:href="#a" xlink:actuate="onLoad" xlink:show="embed" xlink:type="simple" xmlns:xlink="http://www.w3.org/1999/xlink"/>
</g>
<g fill="#e3effb">
<use x="71.340196" y="109.960167" xlink:href="#a" xlink:actuate="onLoad" xlink:show="embed" xlink:type="simple" xmlns:xlink="http://www.w3.org/1999/xlink"/>
</g>
<g fill="#e3effb">
<use x="96.395685" y="109.960167" xlink:actuate="onLoad" xlink:href="#glyph-0-4" xlink:show="embed" xlink:type="simple" xmlns:xlink="http://www.w3.org/1999/xlink"/>
</g>
<g fill="#e3effb">
<use x="106.410551" y="109.960167" xlink:href="#b" xlink:actuate="onLoad" xlink:show="embed" xlink:type="simple" xmlns:xlink="http://www.w3.org/1999/xlink"/>
</g>
<g fill="#e3effb">
<use x="130.842421" y="109.960167" xlink:href="#e" xlink:actuate="onLoad" xlink:show="embed" xlink:type="simple" xmlns:xlink="http://www.w3.org/1999/xlink"/>
</g>
<g fill="#e3effb">
<use x="141.921143" y="109.960167" xlink:href="#a" xlink:actuate="onLoad" xlink:show="embed" xlink:type="simple" xmlns:xlink="http://www.w3.org/1999/xlink"/>
</g>
<g fill="#e3effb">
<use x="166.976632" y="109.960167" xlink:href="#a" xlink:actuate="onLoad" xlink:show="embed" xlink:type="simple" xmlns:xlink="http://www.w3.org/1999/xlink"/>
</g>
<g fill="#e3effb">
<use x="192.032121" y="109.960167" xlink:href="#d" xlink:actuate="onLoad" xlink:show="embed" xlink:type="simple" xmlns:xlink="http://www.w3.org/1999/xlink"/>
</g>
<g fill="#e3effb">
<use x="214.152852" y="109.960167" xlink:href="#c" xlink:actuate="onLoad" xlink:show="embed" xlink:type="simple" xmlns:xlink="http://www.w3.org/1999/xlink"/>
</g>
<g clip-path="url(#r)">
<path transform="matrix(1.9744 -1.06 1.0604 1.9751 4.6895 61.845)" d="m0.49929 4.299e-4 56.36 1.0996e-4" fill="none" stroke="#e3effb" stroke-linecap="round"/>
</g>
<g clip-path="url(#p)">
<path transform="matrix(-1.9796 -1.044 1.0141 -1.9228 227.73 60.768)" d="m0.50063-1.5811e-4 55.095 5.6677e-5" fill="none" stroke="#e3effb" stroke-linecap="round"/>
</g>
<g clip-path="url(#o)">
<path transform="matrix(-2.2447 -.0048956 .0046471 -2.1308 209.99 132.74)" d="m0.5004 5.2664e-4 82.227-9.5854e-5" fill="none" stroke="#e3effb" stroke-linecap="round"/>
</g>
<path transform="matrix(-.0065591 -2.2623 2.1738 -.0063026 24.594 85.506)" d="m0.49987-5.589e-4 13.207 3.1728e-4" fill="none" stroke="#e3effb" stroke-linecap="round"/>
<path transform="matrix(5.154e-15 2.2587 -2.1739 4.96e-15 209.83 115.27)" d="m0.49962 6.1279e-4h7.2739" fill="none" stroke="#e3effb" stroke-linecap="round"/>
<g clip-path="url(#n)">
<path transform="matrix(.0059736 2.2606 -2.1308 .0056306 24.53 121.71)" d="m0.50011 7.7989e-4 3.9622 1.085e-4" fill="none" stroke="#e3effb" stroke-linecap="round"/>
</g>
<path transform="matrix(-.0065591 -2.2623 2.1738 -.0063026 207.38 83.92)" d="m0.50008 1.9146e-4 13.207 3.1728e-4" fill="none" stroke="#e3effb" stroke-linecap="round"/>
</svg>
