<?xml version="1.0" encoding="UTF-8"?><svg xmlns="http://www.w3.org/2000/svg" xmlns:xlink="http://www.w3.org/1999/xlink" contentScriptType="text/ecmascript" width="30" zoomAndPan="magnify" contentStyleType="text/css" viewBox="0 0 30 30.000001" height="30.000001" preserveAspectRatio="xMidYMid meet" version="1.0"><defs><clipPath id="clip-0"><path d="M 0.484375 4.832031 L 29.515625 4.832031 L 29.515625 24.429688 L 0.484375 24.429688 Z M 0.484375 4.832031 " clip-rule="nonzero"/></clipPath><clipPath id="clip-1"><path d="M 0.484375 4.832031 L 10 4.832031 L 10 13 L 0.484375 13 Z M 0.484375 4.832031 " clip-rule="nonzero"/></clipPath><clipPath id="clip-2"><path d="M 0.484375 16 L 10 16 L 10 24.429688 L 0.484375 24.429688 Z M 0.484375 16 " clip-rule="nonzero"/></clipPath><clipPath id="clip-3"><path d="M 12 4.832031 L 29.515625 4.832031 L 29.515625 13 L 12 13 Z M 12 4.832031 " clip-rule="nonzero"/></clipPath><clipPath id="clip-4"><path d="M 12 16 L 29.515625 16 L 29.515625 24.429688 L 12 24.429688 Z M 12 16 " clip-rule="nonzero"/></clipPath></defs><g clip-path="url(#clip-0)"><path fill="rgb(96.859741%, 77.249146%, 0.389099%)" d="M 29.515625 12.945312 L 29.515625 16.320312 L 12.894531 16.320312 L 12.894531 24.429688 L 9.5625 24.429688 L 9.5625 16.320312 L 0.484375 16.320312 L 0.484375 12.945312 L 9.5625 12.945312 L 9.5625 4.835938 L 12.894531 4.835938 L 12.894531 12.945312 Z M 29.515625 12.945312 " fill-opacity="1" fill-rule="nonzero"/></g><g clip-path="url(#clip-1)"><path fill="rgb(0%, 30.589294%, 55.288696%)" d="M 0.484375 4.835938 L 9.5625 4.835938 L 9.5625 12.945312 L 0.484375 12.945312 Z M 0.484375 4.835938 " fill-opacity="1" fill-rule="nonzero"/></g><g clip-path="url(#clip-2)"><path fill="rgb(0%, 30.589294%, 55.288696%)" d="M 0.484375 16.320312 L 9.5625 16.320312 L 9.5625 24.429688 L 0.484375 24.429688 Z M 0.484375 16.320312 " fill-opacity="1" fill-rule="nonzero"/></g><g clip-path="url(#clip-3)"><path fill="rgb(0%, 30.589294%, 55.288696%)" d="M 12.894531 4.835938 L 29.515625 4.835938 L 29.515625 12.945312 L 12.894531 12.945312 Z M 12.894531 4.835938 " fill-opacity="1" fill-rule="nonzero"/></g><g clip-path="url(#clip-4)"><path fill="rgb(0%, 30.589294%, 55.288696%)" d="M 12.894531 16.320312 L 29.515625 16.320312 L 29.515625 24.429688 L 12.894531 24.429688 Z M 12.894531 16.320312 " fill-opacity="1" fill-rule="nonzero"/></g></svg>