<?xml version="1.0" encoding="UTF-8"?><svg xmlns="http://www.w3.org/2000/svg" xmlns:xlink="http://www.w3.org/1999/xlink" contentScriptType="text/ecmascript" width="30" zoomAndPan="magnify" contentStyleType="text/css" viewBox="0 0 30 30.000001" height="30.000001" preserveAspectRatio="xMidYMid meet" version="1.0"><defs><clipPath id="clip-0"><path d="M 0.484375 5.769531 L 29.515625 5.769531 L 29.515625 23.191406 L 0.484375 23.191406 Z M 0.484375 5.769531 " clip-rule="nonzero"/></clipPath><clipPath id="clip-1"><path d="M 0.484375 13 L 29.515625 13 L 29.515625 16 L 0.484375 16 Z M 0.484375 13 " clip-rule="nonzero"/></clipPath><clipPath id="clip-2"><path d="M 8 5.769531 L 12 5.769531 L 12 23.191406 L 8 23.191406 Z M 8 5.769531 " clip-rule="nonzero"/></clipPath></defs><g clip-path="url(#clip-0)"><path fill="rgb(16.079712%, 45.489502%, 71.759033%)" d="M 0.484375 5.78125 L 29.515625 5.78125 L 29.515625 23.179688 L 0.484375 23.179688 Z M 0.484375 5.78125 " fill-opacity="1" fill-rule="nonzero"/></g><g clip-path="url(#clip-1)"><path fill="rgb(92.939758%, 84.309387%, 3.919983%)" d="M 0.484375 13.050781 L 29.515625 13.050781 L 29.515625 15.910156 L 0.484375 15.910156 Z M 0.484375 13.050781 " fill-opacity="1" fill-rule="nonzero"/></g><g clip-path="url(#clip-2)"><path fill="rgb(92.939758%, 84.309387%, 3.919983%)" d="M 8.660156 5.78125 L 11.648438 5.78125 L 11.648438 23.179688 L 8.660156 23.179688 Z M 8.660156 5.78125 " fill-opacity="1" fill-rule="nonzero"/></g></svg>