<?xml version="1.0" encoding="UTF-8"?><svg xmlns="http://www.w3.org/2000/svg" xmlns:xlink="http://www.w3.org/1999/xlink" contentScriptType="text/ecmascript" width="30" zoomAndPan="magnify" contentStyleType="text/css" viewBox="0 0 30 30.000001" height="30.000001" preserveAspectRatio="xMidYMid meet" version="1.0"><defs><clipPath id="clip-0"><path d="M 0.484375 5.40625 L 29.515625 5.40625 L 29.515625 23.550781 L 0.484375 23.550781 Z M 0.484375 5.40625 " clip-rule="nonzero"/></clipPath><clipPath id="clip-1"><path d="M 0.484375 7 L 10 7 L 10 13 L 0.484375 13 Z M 0.484375 7 " clip-rule="nonzero"/></clipPath><clipPath id="clip-2"><path d="M 0.484375 16 L 10 16 L 10 22 L 0.484375 22 Z M 0.484375 16 " clip-rule="nonzero"/></clipPath><clipPath id="clip-3"><path d="M 1 17 L 13 17 L 13 23.550781 L 1 23.550781 Z M 1 17 " clip-rule="nonzero"/></clipPath><clipPath id="clip-4"><path d="M 17 17 L 28 17 L 28 23.550781 L 17 23.550781 Z M 17 17 " clip-rule="nonzero"/></clipPath><clipPath id="clip-5"><path d="M 17 5.40625 L 29 5.40625 L 29 12 L 17 12 Z M 17 5.40625 " clip-rule="nonzero"/></clipPath><clipPath id="clip-6"><path d="M 2 5.40625 L 13 5.40625 L 13 12 L 2 12 Z M 2 5.40625 " clip-rule="nonzero"/></clipPath><clipPath id="clip-7"><path d="M 20 16 L 29.515625 16 L 29.515625 22 L 20 22 Z M 20 16 " clip-rule="nonzero"/></clipPath><clipPath id="clip-8"><path d="M 20 7 L 29.515625 7 L 29.515625 13 L 20 13 Z M 20 7 " clip-rule="nonzero"/></clipPath><clipPath id="clip-9"><path d="M 17 16 L 29.515625 16 L 29.515625 23 L 17 23 Z M 17 16 " clip-rule="nonzero"/></clipPath><clipPath id="clip-10"><path d="M 17 5.40625 L 29.515625 5.40625 L 29.515625 13 L 17 13 Z M 17 5.40625 " clip-rule="nonzero"/></clipPath><clipPath id="clip-11"><path d="M 0.484375 6 L 13 6 L 13 13 L 0.484375 13 Z M 0.484375 6 " clip-rule="nonzero"/></clipPath><clipPath id="clip-12"><path d="M 0.484375 16 L 13 16 L 13 23.550781 L 0.484375 23.550781 Z M 0.484375 16 " clip-rule="nonzero"/></clipPath><clipPath id="clip-13"><path d="M 0.484375 5.40625 L 29.515625 5.40625 L 29.515625 23.550781 L 0.484375 23.550781 Z M 0.484375 5.40625 " clip-rule="nonzero"/></clipPath></defs><g clip-path="url(#clip-0)"><path fill="rgb(100%, 100%, 100%)" d="M 29.515625 21.664062 C 29.515625 22.699219 28.664062 23.546875 27.625 23.546875 L 2.375 23.546875 C 1.335938 23.546875 0.484375 22.699219 0.484375 21.664062 L 0.484375 7.304688 C 0.484375 6.269531 1.335938 5.421875 2.375 5.421875 L 27.625 5.421875 C 28.664062 5.421875 29.515625 6.269531 29.515625 7.304688 L 29.515625 21.664062 " fill-opacity="1" fill-rule="nonzero"/></g><g clip-path="url(#clip-1)"><path fill="rgb(12.548828%, 12.939453%, 28.62854%)" d="M 0.484375 7.625 L 0.484375 12.96875 L 9.769531 12.96875 Z M 0.484375 7.625 " fill-opacity="1" fill-rule="nonzero"/></g><g clip-path="url(#clip-2)"><path fill="rgb(12.548828%, 12.939453%, 28.62854%)" d="M 0.484375 16 L 0.484375 21.222656 L 9.558594 16 Z M 0.484375 16 " fill-opacity="1" fill-rule="nonzero"/></g><g clip-path="url(#clip-3)"><path fill="rgb(12.548828%, 12.939453%, 28.62854%)" d="M 1.859375 23.472656 C 2.023438 23.519531 2.195312 23.546875 2.375 23.546875 L 12.699219 23.546875 L 12.699219 17.238281 L 1.859375 23.472656 " fill-opacity="1" fill-rule="nonzero"/></g><g clip-path="url(#clip-4)"><path fill="rgb(12.548828%, 12.939453%, 28.62854%)" d="M 17.300781 23.546875 L 27.625 23.546875 C 27.722656 23.546875 27.816406 23.535156 27.910156 23.523438 L 17.300781 17.417969 L 17.300781 23.546875 " fill-opacity="1" fill-rule="nonzero"/></g><g clip-path="url(#clip-5)"><path fill="rgb(12.548828%, 12.939453%, 28.62854%)" d="M 28.066406 5.476562 C 27.925781 5.441406 27.777344 5.421875 27.625 5.421875 L 17.300781 5.421875 L 17.300781 11.671875 L 28.066406 5.476562 " fill-opacity="1" fill-rule="nonzero"/></g><g clip-path="url(#clip-6)"><path fill="rgb(12.548828%, 12.939453%, 28.62854%)" d="M 12.699219 5.421875 L 2.375 5.421875 C 2.25 5.421875 2.125 5.433594 2.007812 5.460938 L 12.699219 11.609375 L 12.699219 5.421875 " fill-opacity="1" fill-rule="nonzero"/></g><g clip-path="url(#clip-7)"><path fill="rgb(12.548828%, 12.939453%, 28.62854%)" d="M 29.515625 21.402344 L 29.515625 16 L 20.121094 16 Z M 29.515625 21.402344 " fill-opacity="1" fill-rule="nonzero"/></g><g clip-path="url(#clip-8)"><path fill="rgb(12.548828%, 12.939453%, 28.62854%)" d="M 29.515625 12.96875 L 29.515625 7.6875 L 20.335938 12.96875 Z M 29.515625 12.96875 " fill-opacity="1" fill-rule="nonzero"/></g><g clip-path="url(#clip-9)"><path fill="rgb(89.7995%, 17.248535%, 19.999695%)" d="M 17.582031 16 L 29.207031 22.6875 C 29.34375 22.480469 29.4375 22.246094 29.484375 21.992188 L 19.066406 16 L 17.582031 16 " fill-opacity="1" fill-rule="nonzero"/></g><g clip-path="url(#clip-10)"><path fill="rgb(89.7995%, 17.248535%, 19.999695%)" d="M 28.667969 5.738281 L 17.300781 12.28125 L 17.300781 12.96875 L 17.585938 12.96875 L 29.207031 6.28125 C 29.066406 6.066406 28.882812 5.882812 28.667969 5.738281 " fill-opacity="1" fill-rule="nonzero"/></g><g clip-path="url(#clip-11)"><path fill="rgb(89.7995%, 17.248535%, 19.999695%)" d="M 12.308594 12.96875 L 0.765625 6.328125 C 0.632812 6.539062 0.546875 6.777344 0.507812 7.03125 L 10.828125 12.96875 L 12.308594 12.96875 " fill-opacity="1" fill-rule="nonzero"/></g><g clip-path="url(#clip-12)"><path fill="rgb(89.7995%, 17.248535%, 19.999695%)" d="M 12.699219 16 L 12.308594 16 L 0.765625 22.640625 C 0.898438 22.859375 1.074219 23.046875 1.28125 23.195312 L 12.699219 16.628906 L 12.699219 16 " fill-opacity="1" fill-rule="nonzero"/></g><g clip-path="url(#clip-13)"><path fill="rgb(89.7995%, 17.248535%, 19.999695%)" d="M 16.507812 13.492188 L 16.507812 5.421875 L 13.492188 5.421875 L 13.492188 13.492188 L 0.484375 13.492188 L 0.484375 15.480469 L 13.492188 15.480469 L 13.492188 23.546875 L 16.507812 23.546875 L 16.507812 15.480469 L 29.515625 15.480469 L 29.515625 13.492188 L 16.507812 13.492188 " fill-opacity="1" fill-rule="nonzero"/></g></svg>