<?xml version="1.0" encoding="UTF-8"?><svg xmlns="http://www.w3.org/2000/svg" xmlns:xlink="http://www.w3.org/1999/xlink" contentScriptType="text/ecmascript" width="30" zoomAndPan="magnify" contentStyleType="text/css" viewBox="0 0 30 30.000001" height="30.000001" preserveAspectRatio="xMidYMid meet" version="1.0"><defs><clipPath id="clip-0"><path d="M 0.484375 4.988281 L 29.515625 4.988281 L 29.515625 23.859375 L 0.484375 23.859375 Z M 0.484375 4.988281 " clip-rule="nonzero"/></clipPath><clipPath id="clip-1"><path d="M 3 4.988281 L 14 4.988281 L 14 12 L 3 12 Z M 3 4.988281 " clip-rule="nonzero"/></clipPath><clipPath id="clip-2"><path d="M 0.484375 6 L 9 6 L 9 13 L 0.484375 13 Z M 0.484375 6 " clip-rule="nonzero"/></clipPath><clipPath id="clip-3"><path d="M 16 4.988281 L 27 4.988281 L 27 12 L 16 12 Z M 16 4.988281 " clip-rule="nonzero"/></clipPath><clipPath id="clip-4"><path d="M 21 6 L 29.515625 6 L 29.515625 13 L 21 13 Z M 21 6 " clip-rule="nonzero"/></clipPath><clipPath id="clip-5"><path d="M 16 17 L 27 17 L 27 23.859375 L 16 23.859375 Z M 16 17 " clip-rule="nonzero"/></clipPath><clipPath id="clip-6"><path d="M 21 16 L 29.515625 16 L 29.515625 23 L 21 23 Z M 21 16 " clip-rule="nonzero"/></clipPath><clipPath id="clip-7"><path d="M 0.484375 16 L 10 16 L 10 23.859375 L 0.484375 23.859375 Z M 0.484375 16 " clip-rule="nonzero"/></clipPath><clipPath id="clip-8"><path d="M 4 18 L 14 18 L 14 23.859375 L 4 23.859375 Z M 4 18 " clip-rule="nonzero"/></clipPath><clipPath id="clip-9"><path d="M 0.484375 4.988281 L 29.515625 4.988281 L 29.515625 23.859375 L 0.484375 23.859375 Z M 0.484375 4.988281 " clip-rule="nonzero"/></clipPath><clipPath id="clip-10"><path d="M 0.484375 4.988281 L 12 4.988281 L 12 13 L 0.484375 13 Z M 0.484375 4.988281 " clip-rule="nonzero"/></clipPath><clipPath id="clip-11"><path d="M 18 4.988281 L 29.515625 4.988281 L 29.515625 13 L 18 13 Z M 18 4.988281 " clip-rule="nonzero"/></clipPath><clipPath id="clip-12"><path d="M 18 16 L 29.515625 16 L 29.515625 23.859375 L 18 23.859375 Z M 18 16 " clip-rule="nonzero"/></clipPath><clipPath id="clip-13"><path d="M 2 16 L 14 16 L 14 23.859375 L 2 23.859375 Z M 2 16 " clip-rule="nonzero"/></clipPath></defs><g clip-path="url(#clip-0)"><path fill="rgb(100%, 100%, 100%)" d="M 0.488281 4.988281 L 0.488281 23.859375 L 29.515625 23.859375 L 29.515625 4.988281 L 0.488281 4.988281 " fill-opacity="1" fill-rule="nonzero"/></g><g clip-path="url(#clip-1)"><path fill="rgb(17.248535%, 29.40979%, 59.609985%)" d="M 13.003906 11.726562 L 13.003906 4.988281 L 3.683594 4.988281 L 13.003906 11.726562 " fill-opacity="1" fill-rule="nonzero"/></g><g clip-path="url(#clip-2)"><path fill="rgb(17.248535%, 29.40979%, 59.609985%)" d="M 0.488281 6.605469 L 0.488281 12.265625 L 8.742188 12.265625 L 0.488281 6.605469 " fill-opacity="1" fill-rule="nonzero"/></g><g clip-path="url(#clip-3)"><path fill="rgb(17.248535%, 29.40979%, 59.609985%)" d="M 16.996094 4.988281 L 16.996094 11.726562 L 26.320312 4.988281 L 16.996094 4.988281 " fill-opacity="1" fill-rule="nonzero"/></g><g clip-path="url(#clip-4)"><path fill="rgb(17.248535%, 29.40979%, 59.609985%)" d="M 21.257812 12.265625 L 29.515625 12.265625 L 29.515625 6.605469 L 21.257812 12.265625 " fill-opacity="1" fill-rule="nonzero"/></g><g clip-path="url(#clip-5)"><path fill="rgb(17.248535%, 29.40979%, 59.609985%)" d="M 16.996094 23.859375 L 26.320312 23.859375 L 16.996094 17.121094 L 16.996094 23.859375 " fill-opacity="1" fill-rule="nonzero"/></g><g clip-path="url(#clip-6)"><path fill="rgb(17.248535%, 29.40979%, 59.609985%)" d="M 29.515625 22.242188 L 29.515625 16.578125 L 21.257812 16.578125 L 29.515625 22.242188 " fill-opacity="1" fill-rule="nonzero"/></g><g clip-path="url(#clip-7)"><path fill="rgb(17.248535%, 29.40979%, 59.609985%)" d="M 0.488281 16.578125 L 0.488281 23.320312 L 9.808594 16.578125 L 0.488281 16.578125 " fill-opacity="1" fill-rule="nonzero"/></g><g clip-path="url(#clip-8)"><path fill="rgb(17.248535%, 29.40979%, 59.609985%)" d="M 13.003906 23.859375 L 13.003906 18.199219 L 4.746094 23.859375 L 13.003906 23.859375 " fill-opacity="1" fill-rule="nonzero"/></g><g clip-path="url(#clip-9)"><path fill="rgb(79.998779%, 16.468811%, 27.839661%)" d="M 16.464844 4.988281 L 13.535156 4.988281 L 13.535156 12.804688 L 0.488281 12.804688 L 0.488281 16.039062 L 13.535156 16.039062 L 13.535156 23.859375 L 16.464844 23.859375 L 16.464844 16.039062 L 29.515625 16.039062 L 29.515625 12.804688 L 16.464844 12.804688 L 16.464844 4.988281 " fill-opacity="1" fill-rule="nonzero"/></g><g clip-path="url(#clip-10)"><path fill="rgb(79.998779%, 16.468811%, 27.839661%)" d="M 11.40625 12.265625 L 0.488281 4.988281 L 0.488281 5.796875 L 10.074219 12.265625 L 11.40625 12.265625 " fill-opacity="1" fill-rule="nonzero"/></g><g clip-path="url(#clip-11)"><path fill="rgb(79.998779%, 16.468811%, 27.839661%)" d="M 18.59375 12.265625 L 19.925781 12.265625 L 29.515625 5.796875 L 29.515625 4.988281 L 18.59375 12.265625 " fill-opacity="1" fill-rule="nonzero"/></g><g clip-path="url(#clip-12)"><path fill="rgb(79.998779%, 16.468811%, 27.839661%)" d="M 18.59375 16.578125 L 29.515625 23.859375 L 29.515625 23.050781 L 19.925781 16.578125 L 18.59375 16.578125 " fill-opacity="1" fill-rule="nonzero"/></g><g clip-path="url(#clip-13)"><path fill="rgb(79.998779%, 16.468811%, 27.839661%)" d="M 3.414062 23.859375 L 13.003906 17.390625 L 13.003906 16.578125 L 2.085938 23.859375 L 3.414062 23.859375 " fill-opacity="1" fill-rule="nonzero"/></g></svg>