<svg xmlns="http://www.w3.org/2000/svg" contentScriptType="text/ecmascript" width="30" zoomAndPan="magnify" contentStyleType="text/css" height="30" preserveAspectRatio="xMidYMid meet" xmlns:v="https://vecta.io/nano"><style><![CDATA[.B{clip-rule:nonzero}.C{fill:rgb(9.799194%, 44.709778%, 92.158508%)}.D{fill:rgb(36.079407%, 61.959839%, 96.469116%)}]]></style><defs><clipPath id="A"><path d="M.484 0h29.031v19H.484zm0 0" class="B"/></clipPath><clipPath id="B"><path d="M3 7h24v22.031H3zm0 0" class="B"/></clipPath></defs><g clip-path="url(#A)"><path d="M27.637 12.781v-9.23h-4.238v5.016L14.922.145-1.238 16.211l2.16 2.145 14-13.922L28.93 18.355l2.156-2.145-3.449-3.43" class="C"/><path d="M27.637 12.781h.129v-9.23c0-.035-.016-.066-.039-.09s-.059-.039-.09-.039h-4.238c-.035 0-.066.016-.09.039s-.039.055-.039.09v4.711L15.012.051c-.047-.047-.129-.047-.18 0l-16.16 16.066c-.023.027-.039.059-.039.094s.016.066.039.09l2.16 2.145c.051.051.129.051.18 0l13.91-13.832L28.84 18.445c.051.051.129.051.18 0l2.156-2.145c.023-.023.039-.055.039-.09s-.016-.066-.039-.094l-3.449-3.43-.09.094h.129-.129l-.09.09 3.359 3.34-1.977 1.965L15.012 4.34c-.047-.047-.129-.047-.18 0L.922 18.176l-1.98-1.965L14.922.324l8.387 8.336c.035.035.09.047.141.027s.078-.066.078-.121V3.68h3.98v9.102c0 .031.016.066.039.09l.09-.09" class="D"/></g><path d="M3.742 19.137v9.77h7.707v-8.844h7.246v8.844h7.414v-9.77L14.922 7.68 3.742 19.137" class="C"/><g clip-path="url(#B)" class="D"><path d="M3.742 19.137h-.129v9.77c0 .035.012.066.035.09s.059.039.094.039h7.707c.035 0 .066-.016.09-.039s.039-.055.039-.09v-8.715h6.988v8.715c0 .035.012.066.035.09s.059.039.094.039h7.414c.035 0 .066-.016.09-.039s.039-.055.039-.09v-9.77c0-.035-.012-.066-.035-.09L15.016 7.59c-.023-.023-.059-.039-.094-.039s-.066.016-.09.039L3.648 19.047c-.023.023-.035.055-.035.09h.129l.09.09 11.09-11.363 11.063 11.324v9.59H18.82v-8.715c0-.035-.012-.066-.035-.09s-.059-.039-.09-.039h-7.246c-.035 0-.066.016-.09.039s-.039.055-.039.09v8.715H3.867v-9.641h-.125l.09.09-.09-.09"/></g></svg>