<svg xmlns="http://www.w3.org/2000/svg" contentScriptType="text/ecmascript" width="75" zoomAndPan="magnify" contentStyleType="text/css" height="75" preserveAspectRatio="xMidYMid meet" fill="rgb(85.879517%, 90.19928%, 99.21875%)" xmlns:v="https://vecta.io/nano"><path d="M37.523 73.527c-19.883 0-36-16.117-36-36.004 0-19.879 16.117-36 36-36s36.004 16.121 36.004 36c0 19.887-16.121 36.004-36.004 36.004zm0-73.504c-20.711 0-37.5 16.789-37.5 37.5s16.789 37.504 37.5 37.504 37.504-16.789 37.504-37.504S58.238.023 37.523.023m-7.785 34.95a.43.43 0 0 0-.191-.297c-.078-.051-.355-.187-.699.188l-2.312 2.316a.17.17 0 0 1-.027.023c-.145-.09-.285-.191-.43-.301l-.258-.184c-.211-.145-.367-.09-.441-.039a.29.29 0 0 0-.109.121c-.062.117-.051.262.027.41l.773 1.395c.141.254.313.309.43.309.035 0 .066-.008.09-.012.133-.031.211-.129.254-.18l2.121-2.57.66-.809a.46.46 0 0 0 .113-.371m14.589.739c0-.371-.215-.668-.484-.668H31.539c-.27 0-.488.297-.488.668s.219.668.488.668h12.305c.27 0 .484-.301.484-.668M31.539 38.48h8.398c.371 0 .668-.297.668-.664a.67.67 0 0 0-.668-.672h-8.398c-.27 0-.488.301-.488.672s.219.664.488.664m-2.18 4.36c-.078-.051-.355-.191-.703.184l-2.312 2.316-.027.027-.43-.305-.254-.184c-.211-.148-.367-.09-.441-.039-.051.031-.086.074-.113.121-.062.117-.051.262.031.41l.77 1.395c.145.258.316.309.43.309.039 0 .07-.008.094-.012a.45.45 0 0 0 .25-.18l2.121-2.57.664-.805c.09-.113.129-.246.109-.375-.016-.121-.086-.227-.187-.293m14.412.384c-.039-.012-.078-.02-.121-.02H31.348c-.133 0-.254.07-.34.191a.84.84 0 0 0-.145.477c0 .367.219.668.484.668h10.586a11.59 11.59 0 0 1 1.84-1.316m-12.425 2.082c-.27 0-.484.301-.484.668s.215.668.484.668h8.398a.69.69 0 0 0 .371-.105l.266-.355a.74.74 0 0 0 .031-.207c0-.184-.074-.352-.195-.473s-.289-.195-.473-.195h-8.398M25.82 28.602c-.211-.148-.367-.086-.441-.039a.29.29 0 0 0-.109.121c-.062.117-.051.266.027.41l.773 1.395c.141.254.313.309.43.309.035 0 .066-.008.09-.012.133-.035.211-.129.254-.18l2.121-2.57.66-.805c.094-.113.133-.25.113-.375a.43.43 0 0 0-.191-.297c-.078-.047-.355-.187-.699.188l-2.312 2.316c-.008.008-.016.016-.027.023-.145-.09-.285-.191-.43-.301l-.258-.184m14.117 1.762c.371 0 .668-.297.668-.664a.67.67 0 0 0-.668-.668H31.54c-.27 0-.488.297-.488.668s.219.664.488.664h8.398m3.906-3.437H31.539c-.27 0-.488.297-.488.668s.219.664.488.664h12.305c.27 0 .484-.297.484-.664s-.215-.668-.484-.668m5.543 14.758h.164c1.309 0 2.57.215 3.746.617V15.73c0-1.535-1.437-2.789-3.203-2.789H43.09v1.973 1.078.355h6.297v25.336M19.98 57.219V16.348h6.305v-.355l-.004-1.086.004-1.965h-7.012c-1.77 0-3.199 1.254-3.199 2.789v42.098c0 1.543 1.43 2.793 3.199 2.793h21.27c-.82-1.008-1.477-2.156-1.922-3.402H19.98"/><path d="M34.684 10.09c1.125 0 2.035.91 2.035 2.035a2.03 2.03 0 0 1-2.035 2.031c-1.125 0-2.035-.91-2.035-2.031a2.04 2.04 0 0 1 2.035-2.035zm6.93 6.254l-.008-3.328c-.012-.66-.551-1.16-1.211-1.18l-1.133-.004c-.598-2.887-2.902-3.965-4.641-3.926-2.246.047-3.902 1.457-4.527 3.926-.391 0-.758-.008-1.129.004-.59.016-1.172.453-1.191 1.016l-.012 3.492h13.852m13.734 32.281a14.99 14.99 0 0 0-2.539 2.203c-1.699 1.832-2.891 3.973-3.785 6.281-.289.754-.746 1.211-1.488 1.488-1.184.438-1.27.645-1.969-.727-.758-1.484-1.871-2.687-3.098-3.793l-.285-.262c-.266-.273-.223-.543.133-.664l2.5-.812c.293-.094.488.074.664.281.578.684 1.043 1.445 1.477 2.258l1.18-1.738c1.617-2.199 3.695-3.855 6.125-5.082.324-.164.66-.195.996-.055.145.063.328.086.359.273.035.199-.145.262-.27.348zm-5.793-4.75c-5.207 0-9.426 4.219-9.426 9.426s4.219 9.422 9.426 9.422a9.43 9.43 0 0 0 9.422-9.422 9.43 9.43 0 0 0-9.422-9.426"/></svg>