<svg xmlns="http://www.w3.org/2000/svg" contentScriptType="text/ecmascript" width="75" zoomAndPan="magnify" contentStyleType="text/css" height="75" preserveAspectRatio="xMidYMid meet" xmlns:v="https://vecta.io/nano"><defs><clipPath id="A"><path d="M0 1.406h75v72H0zm0 0" clip-rule="nonzero"/></clipPath></defs><g clip-path="url(#A)"><path fill="rgb(85.879517%, 90.19928%, 99.21875%)" d="M70.352 37.402l4.781-12.859-5.516.938C64.598 11.367 50.984 1.652 35.844 1.652 16.082 1.652 0 17.691 0 37.406S16.082 73.16 35.844 73.16c16.512 0 30.809-11.176 34.766-27.172l-2.68-.66C64.281 60.094 51.082 70.41 35.844 70.41c-18.242 0-33.086-14.805-33.086-33.004S17.602 4.402 35.844 4.402c13.816 0 26.262 8.766 31.023 21.543l-5.289.895zm0 0"/></g><path d="M22.391 51.156l7.387-27.5H27.25c-.461 1.035-1.027 1.887-1.707 2.563a8.13 8.13 0 0 1-2.23 1.59c-.816.383-1.684.652-2.609.793a17.72 17.72 0 0 1-2.773.211l-.711 2.641h7.156l-5.293 19.703zm28.953-26.89c-.898-.41-2.051-.609-3.457-.609s-2.668.199-3.781.609-2.102.957-2.949 1.645a11.45 11.45 0 0 0-2.219 2.406c-.629.914-1.18 1.883-1.66 2.906a25.88 25.88 0 0 0-1.223 3.133l-.91 3.094-.75 3.094a20.03 20.03 0 0 0-.461 3.133c-.07 1.016-.039 1.98.102 2.883s.449 1.699.93 2.387 1.172 1.23 2.074 1.625 2.055.586 3.461.586c1.43 0 2.699-.195 3.797-.59s2.078-.937 2.93-1.625 1.586-1.484 2.211-2.387a20.3 20.3 0 0 0 1.66-2.883c.48-1.016.883-2.066 1.219-3.137l.91-3.094.758-3.094a21.57 21.57 0 0 0 .457-3.133c.07-1.02.039-1.988-.102-2.902s-.449-1.719-.922-2.406c-.484-.687-1.176-1.23-2.074-1.641zm-.531 8.535c-.102.805-.254 1.609-.453 2.406l-.57 2.195-1.016 3.422a18.21 18.21 0 0 1-1.566 3.555 9.8 9.8 0 0 1-2.418 2.809c-.977.762-2.148 1.145-3.527 1.145s-2.344-.383-2.91-1.145c-.559-.766-.863-1.703-.91-2.809s.063-2.293.344-3.555l.816-3.422.609-2.195c.227-.797.516-1.602.844-2.406.328-.797.703-1.582 1.129-2.348a8.63 8.63 0 0 1 1.496-2 7.12 7.12 0 0 1 1.961-1.398c.734-.355 1.563-.535 2.477-.535.922 0 1.656.18 2.199.535a3.42 3.42 0 0 1 1.215 1.398c.266.57.402 1.238.414 2s-.031 1.551-.133 2.348zm0 0" fill="rgb(85.879517%, 90.19928%, 99.21875%)"/></svg>