<svg xmlns="http://www.w3.org/2000/svg" contentScriptType="text/ecmascript" width="75" zoomAndPan="magnify" contentStyleType="text/css" height="75" preserveAspectRatio="xMidYMid meet" xmlns:v="https://vecta.io/nano"><style><![CDATA[.B{fill:rgb(85.879517%, 90.19928%, 99.21875%)}.C{clip-rule:nonzero}]]></style><defs><clipPath id="A"><path d="M17.469 31H31v21.781H17.469zm0 0" class="C"/></clipPath><clipPath id="B"><path d="M29 14.559h28.887V52H29zm0 0" class="C"/></clipPath></defs><path d="M37.469 74.941a37.18 37.18 0 0 1-26.492-10.98C3.895 56.895 0 47.473 0 37.469s3.895-19.422 10.977-26.492C18.047 3.895 27.465 0 37.469 0s19.426 3.895 26.492 10.977c7.086 7.086 10.98 16.488 10.98 26.492s-3.895 19.426-10.98 26.492c-7.066 7.086-16.488 10.98-26.492 10.98zm0-72.695a34.99 34.99 0 0 0-24.902 10.32 34.99 34.99 0 0 0-10.32 24.902 34.99 34.99 0 0 0 10.32 24.906c6.648 6.648 15.5 10.32 24.902 10.32s18.258-3.672 24.906-10.32 10.32-15.5 10.32-24.906-3.672-18.254-10.32-24.902a34.99 34.99 0 0 0-24.906-10.32zm0 0" class="B"/><g clip-path="url(#A)" class="B"><path d="M19.148 51.117H29.23V32.836H19.148zm10.926 1.664H18.309c-.465 0-.84-.375-.84-.832V32.008c0-.461.375-.832.84-.832h11.766c.465 0 .84.371.84.832v19.941c0 .457-.375.832-.84.832"/></g><g clip-path="url(#B)" class="B"><path d="M50.66 51.117H35.113c-1.551 0-4.379-.664-5.633-1.906-.324-.328-.316-.852.02-1.172.324-.309.84-.309 1.168 0 .793.785 3.078 1.418 4.441 1.418H50.66c1.156 0 2.098-.934 2.098-2.074 0-.574-.234-1.109-.664-1.508-.336-.316-.352-.84-.035-1.172a.85.85 0 0 1 .516-.258c1.059-.117 1.863-.996 1.867-2.051 0-.57-.234-1.105-.664-1.512a.82.82 0 0 1-.035-1.172c.137-.141.316-.227.516-.254 1.055-.117 1.859-.996 1.859-2.051 0-.773-.434-1.477-1.148-1.836-.406-.207-.574-.699-.367-1.109a.86.86 0 0 1 .313-.336c.754-.465 1.203-1.254 1.203-2.117 0-1.375-1.125-2.492-2.52-2.492H41.84c-.469-.004-.848-.379-.844-.84 0-.098.02-.195.051-.285.02-.047 1.629-4.262 1.629-7.184 0-2.719-2.437-4.984-3.359-4.984-.727 0-1.332.262-1.68.453v5.363c0 .121-.027.234-.082.348l-5.039 10.797a.83.83 0 0 1-.387.398l-1.68.832c-.414.203-.922.039-1.129-.375s-.039-.91.375-1.113l1.418-.703 4.844-10.367v-5.633a.82.82 0 0 1 .313-.648 5.31 5.31 0 0 1 3.047-1.016c1.945 0 5.043 3.043 5.043 6.648 0 2.273-.828 5.102-1.34 6.645h10.578c2.32 0 4.203 1.867 4.203 4.156 0 1.047-.395 2.031-1.09 2.785.691.684 1.09 1.617 1.09 2.613-.004 1.406-.805 2.695-2.074 3.328.922 1.832.172 4.063-1.68 4.984.922 1.855.156 4.098-1.719 5.012a3.8 3.8 0 0 1-1.668.387"/></g></svg>